<svg width="126" height="126" viewBox="0 0 126 126" fill="none" xmlns="http://www.w3.org/2000/svg">
<g id="Group 427318836">
<path id="Ellipse 950 (Stroke)" d="M108.371 22.2268C103.94 17.2986 96.3529 16.8955 91.4247 21.3267C86.4964 25.7578 86.0934 33.3451 90.5245 38.2733C96.424 44.8348 99.9995 53.4855 99.9995 62.9999C99.9995 83.4343 83.4342 99.9997 62.9998 99.9997C42.5654 99.9997 26 83.4343 26 62.9999C26 60.9296 26.1689 58.9075 26.4912 56.9445C27.5652 50.4047 23.1342 44.2325 16.5944 43.1586C10.0545 42.0846 3.88236 46.5156 2.80842 53.0554C2.27578 56.299 2 59.6217 2 62.9999C2 96.6892 29.3105 124 62.9998 124C96.689 124 124 96.6892 124 62.9999C124 47.334 118.078 33.0229 108.371 22.2268Z" fill="#BAEDBD" stroke="#282828" stroke-width="4" stroke-linecap="round" stroke-linejoin="round"/>
<path id="Ellipse 953 (Stroke)" d="M34.463 21.3267L33.1258 22.8139L34.463 21.3267C29.5347 16.8955 21.9474 17.2986 17.5163 22.2268C12.859 27.4066 9.07085 33.3961 6.38995 39.9666C3.88623 46.1029 6.831 53.107 12.9673 55.6108C19.1036 58.1145 26.1077 55.1697 28.6114 49.0334C30.2318 45.0621 32.5279 41.4267 35.3632 38.2733C39.7943 33.3451 39.3913 25.7578 34.463 21.3267Z" fill="#B1E3FF" stroke="#282828" stroke-width="4" stroke-linecap="round" stroke-linejoin="round"/>
<path id="Ellipse 952 (Stroke)" d="M41.618 32.625C47.6062 28.4481 54.8755 26 62.7527 26C70.6299 26 77.8992 28.4481 83.8874 32.625C89.3231 36.4165 96.8033 35.0837 100.595 29.648C104.386 24.2122 103.053 16.7321 97.6177 12.9406C87.7325 6.04538 75.6971 2 62.7527 2C49.8083 2 37.7729 6.04538 27.8877 12.9406C22.4519 16.7321 21.1191 24.2122 24.9106 29.648C28.7021 35.0837 36.1823 36.4165 41.618 32.625Z" fill="#95A4FC" stroke="#282828" stroke-width="4" stroke-linecap="round" stroke-linejoin="round"/>
<path id="Ellipse 954 (Stroke)" d="M108.372 22.2268C103.94 17.2986 96.3532 16.8955 91.4249 21.3267C86.4966 25.7578 86.0936 33.3451 90.5247 38.2733C96.4243 44.8348 99.9998 53.4855 99.9998 62.9999C99.9998 83.4344 83.4344 99.9997 63 99.9997C56.3726 99.9997 51 105.372 51 112C51 118.627 56.3726 124 63 124C96.6892 124 124 96.6892 124 62.9999C124 47.334 118.079 33.0228 108.372 22.2268Z" fill="#C6C7F8" stroke="#282828" stroke-width="4" stroke-linecap="round" stroke-linejoin="round"/>
<path id="Ellipse 955" d="M63.0001 111.783C67.5009 111.783 71.86 111.176 76 110.04" stroke="#282828" stroke-width="28" stroke-linecap="round" stroke-linejoin="round"/>
<path id="Ellipse 952" d="M35.0003 103C42.9371 108.536 52.5894 111.783 63.0001 111.783C67.5009 111.783 71.86 111.176 76 110.04" stroke="#BAEDBD" stroke-width="20" stroke-linecap="round" stroke-linejoin="round"/>
</g>
</svg>
