<svg width="180" height="28" viewBox="0 0 180 28" fill="none" xmlns="http://www.w3.org/2000/svg">
<rect width="180" height="28" rx="8" fill="black" fill-opacity="0.05"/>
<path d="M0 8C0 6.89543 0.895431 6 2 6C3.10457 6 4 6.89543 4 8V20C4 21.1046 3.10457 22 2 22C0.895431 22 0 21.1046 0 20V8Z" fill="#1C1C1C"/>
<path d="M53.233 19V8.81818H56.6733C57.4721 8.81818 58.125 8.96236 58.6321 9.25071C59.1425 9.53575 59.5204 9.92188 59.7656 10.4091C60.0109 10.8963 60.1335 11.4399 60.1335 12.0398C60.1335 12.6397 60.0109 13.1849 59.7656 13.6754C59.5237 14.166 59.1491 14.5571 58.642 14.8487C58.1349 15.1371 57.4853 15.2812 56.6932 15.2812H54.2273V14.1875H56.6534C57.2003 14.1875 57.6394 14.093 57.9709 13.9041C58.3023 13.7152 58.5426 13.46 58.6918 13.1385C58.8442 12.8137 58.9205 12.4474 58.9205 12.0398C58.9205 11.6321 58.8442 11.2675 58.6918 10.946C58.5426 10.6245 58.3007 10.3726 57.9659 10.1903C57.6312 10.0047 57.187 9.91193 56.6335 9.91193H54.4659V19H53.233ZM61.9606 19V11.3636H63.0941V12.517H63.1737C63.3129 12.1392 63.5647 11.8326 63.9293 11.5973C64.2939 11.362 64.7049 11.2443 65.1623 11.2443C65.2485 11.2443 65.3562 11.246 65.4854 11.2493C65.6147 11.2526 65.7125 11.2576 65.7788 11.2642V12.4574C65.739 12.4474 65.6478 12.4325 65.5053 12.4126C65.3661 12.3894 65.2186 12.3778 65.0629 12.3778C64.6916 12.3778 64.3602 12.4557 64.0685 12.6115C63.7802 12.764 63.5515 12.9761 63.3825 13.2479C63.2167 13.5163 63.1339 13.8229 63.1339 14.1676V19H61.9606ZM70.0394 19.1591C69.35 19.1591 68.7451 18.995 68.2248 18.6669C67.7077 18.3388 67.3034 17.8797 67.0117 17.2898C66.7234 16.6998 66.5792 16.0104 66.5792 15.2216C66.5792 14.4261 66.7234 13.7318 67.0117 13.1385C67.3034 12.5452 67.7077 12.0845 68.2248 11.7564C68.7451 11.4283 69.35 11.2642 70.0394 11.2642C70.7288 11.2642 71.332 11.4283 71.8491 11.7564C72.3694 12.0845 72.7738 12.5452 73.0621 13.1385C73.3538 13.7318 73.4996 14.4261 73.4996 15.2216C73.4996 16.0104 73.3538 16.6998 73.0621 17.2898C72.7738 17.8797 72.3694 18.3388 71.8491 18.6669C71.332 18.995 70.7288 19.1591 70.0394 19.1591ZM70.0394 18.1051C70.5631 18.1051 70.994 17.9709 71.332 17.7024C71.6701 17.4339 71.9203 17.081 72.0827 16.6435C72.2451 16.206 72.3263 15.732 72.3263 15.2216C72.3263 14.7112 72.2451 14.2356 72.0827 13.7947C71.9203 13.3539 71.6701 12.9976 71.332 12.7259C70.994 12.4541 70.5631 12.3182 70.0394 12.3182C69.5157 12.3182 69.0849 12.4541 68.7468 12.7259C68.4087 12.9976 68.1585 13.3539 67.9961 13.7947C67.8337 14.2356 67.7525 14.7112 67.7525 15.2216C67.7525 15.732 67.8337 16.206 67.9961 16.6435C68.1585 17.081 68.4087 17.4339 68.7468 17.7024C69.0849 17.9709 69.5157 18.1051 70.0394 18.1051ZM75.2907 11.3636H76.464V19.5568C76.464 20.0275 76.3828 20.4351 76.2203 20.7798C76.0613 21.1245 75.8193 21.3913 75.4945 21.5803C75.173 21.7692 74.767 21.8636 74.2765 21.8636C74.2367 21.8636 74.1969 21.8636 74.1571 21.8636C74.1174 21.8636 74.0776 21.8636 74.0378 21.8636V20.7699C74.0776 20.7699 74.1141 20.7699 74.1472 20.7699C74.1803 20.7699 74.2168 20.7699 74.2566 20.7699C74.6145 20.7699 74.8764 20.6638 75.0421 20.4517C75.2078 20.2429 75.2907 19.9446 75.2907 19.5568V11.3636ZM75.8674 10.0909C75.6387 10.0909 75.4415 10.013 75.2757 9.85724C75.1133 9.70147 75.0321 9.5142 75.0321 9.29545C75.0321 9.0767 75.1133 8.88944 75.2757 8.73366C75.4415 8.57789 75.6387 8.5 75.8674 8.5C76.0961 8.5 76.2916 8.57789 76.454 8.73366C76.6197 8.88944 76.7026 9.0767 76.7026 9.29545C76.7026 9.5142 76.6197 9.70147 76.454 9.85724C76.2916 10.013 76.0961 10.0909 75.8674 10.0909ZM81.8146 19.1591C81.0788 19.1591 80.4441 18.9967 79.9105 18.6719C79.3802 18.3438 78.9709 17.8864 78.6825 17.2997C78.3975 16.7098 78.255 16.0237 78.255 15.2415C78.255 14.4593 78.3975 13.7699 78.6825 13.1733C78.9709 12.5734 79.3719 12.1061 79.8857 11.7713C80.4027 11.4332 81.0059 11.2642 81.6953 11.2642C82.093 11.2642 82.4858 11.3305 82.8736 11.4631C83.2614 11.5956 83.6143 11.8111 83.9325 12.1094C84.2507 12.4044 84.5043 12.7955 84.6932 13.2827C84.8821 13.7699 84.9766 14.3698 84.9766 15.0824V15.5795H79.0902V14.5653H83.7834C83.7834 14.1345 83.6972 13.75 83.5249 13.4119C83.3558 13.0739 83.1139 12.8071 82.799 12.6115C82.4875 12.416 82.1196 12.3182 81.6953 12.3182C81.228 12.3182 80.8236 12.4342 80.4822 12.6662C80.1442 12.8949 79.884 13.1932 79.7017 13.5611C79.5194 13.929 79.4283 14.3234 79.4283 14.7443V15.4205C79.4283 15.9972 79.5277 16.486 79.7266 16.8871C79.9287 17.2848 80.2088 17.5881 80.5668 17.7969C80.9247 18.0024 81.3407 18.1051 81.8146 18.1051C82.1229 18.1051 82.4013 18.062 82.6499 17.9759C82.9018 17.8864 83.1188 17.7538 83.3011 17.5781C83.4834 17.3991 83.6243 17.1771 83.7237 16.9119L84.8572 17.2301C84.7379 17.6146 84.5374 17.9527 84.2557 18.2443C83.974 18.5327 83.6259 18.758 83.2116 18.9205C82.7973 19.0795 82.3317 19.1591 81.8146 19.1591ZM89.8636 19.1591C89.1477 19.1591 88.5313 18.9901 88.0142 18.652C87.4972 18.3139 87.0994 17.8482 86.821 17.255C86.5426 16.6617 86.4034 15.9839 86.4034 15.2216C86.4034 14.446 86.5459 13.7616 86.831 13.1683C87.1193 12.5717 87.5204 12.1061 88.0341 11.7713C88.5511 11.4332 89.1544 11.2642 89.8438 11.2642C90.3807 11.2642 90.8646 11.3636 91.2955 11.5625C91.7263 11.7614 92.0793 12.0398 92.3544 12.3977C92.6295 12.7557 92.8002 13.1733 92.8665 13.6506H91.6932C91.6037 13.3026 91.4048 12.9943 91.0966 12.7259C90.7917 12.4541 90.3807 12.3182 89.8636 12.3182C89.4063 12.3182 89.0052 12.4375 88.6605 12.6761C88.3191 12.9115 88.0523 13.2446 87.8601 13.6754C87.6712 14.103 87.5767 14.6051 87.5767 15.1818C87.5767 15.7718 87.6695 16.2855 87.8551 16.723C88.044 17.1605 88.3092 17.5002 88.6506 17.7422C88.9953 17.9841 89.3996 18.1051 89.8636 18.1051C90.1686 18.1051 90.4453 18.0521 90.6939 17.946C90.9425 17.84 91.1529 17.6875 91.3253 17.4886C91.4976 17.2898 91.6203 17.0511 91.6932 16.7727H92.8665C92.8002 17.2235 92.6361 17.6295 92.3743 17.9908C92.1158 18.3487 91.7727 18.6338 91.3452 18.8459C90.9209 19.0547 90.4271 19.1591 89.8636 19.1591ZM97.9027 11.3636V12.358H93.9453V11.3636H97.9027ZM95.0987 9.53409H96.272V16.8125C96.272 17.1439 96.3201 17.3925 96.4162 17.5582C96.5156 17.7206 96.6416 17.83 96.794 17.8864C96.9498 17.9394 97.1139 17.9659 97.2862 17.9659C97.4155 17.9659 97.5215 17.9593 97.6044 17.946C97.6873 17.9295 97.7536 17.9162 97.8033 17.9062L98.0419 18.9602C97.9624 18.9901 97.8513 19.0199 97.7088 19.0497C97.5663 19.0829 97.3857 19.0994 97.1669 19.0994C96.8355 19.0994 96.5107 19.0282 96.1925 18.8857C95.8776 18.7431 95.6158 18.526 95.407 18.2344C95.2015 17.9427 95.0987 17.5748 95.0987 17.1307V9.53409ZM104.94 13.0739L103.886 13.3722C103.82 13.1965 103.722 13.0258 103.593 12.8601C103.467 12.6911 103.294 12.5518 103.076 12.4425C102.857 12.3331 102.577 12.2784 102.235 12.2784C101.768 12.2784 101.379 12.3861 101.067 12.6016C100.759 12.8137 100.605 13.0838 100.605 13.4119C100.605 13.7036 100.711 13.9339 100.923 14.103C101.135 14.272 101.467 14.4129 101.917 14.5256L103.051 14.804C103.734 14.9697 104.242 15.2232 104.577 15.5646C104.912 15.9027 105.079 16.3385 105.079 16.8722C105.079 17.3097 104.953 17.7008 104.701 18.0455C104.453 18.3902 104.105 18.6619 103.657 18.8608C103.21 19.0597 102.69 19.1591 102.096 19.1591C101.317 19.1591 100.673 18.9901 100.162 18.652C99.6519 18.3139 99.3287 17.8201 99.1928 17.1705L100.306 16.892C100.413 17.303 100.613 17.6113 100.908 17.8168C101.206 18.0223 101.596 18.125 102.076 18.125C102.623 18.125 103.057 18.009 103.379 17.777C103.704 17.5417 103.866 17.2599 103.866 16.9318C103.866 16.6667 103.773 16.4446 103.588 16.2656C103.402 16.0833 103.117 15.9474 102.733 15.858L101.46 15.5597C100.761 15.3939 100.247 15.1371 99.9187 14.7891C99.5939 14.4377 99.4315 13.9986 99.4315 13.4716C99.4315 13.0407 99.5524 12.6596 99.7944 12.3281C100.04 11.9967 100.373 11.7365 100.794 11.5476C101.218 11.3587 101.699 11.2642 102.235 11.2642C102.991 11.2642 103.584 11.4299 104.015 11.7614C104.449 12.0928 104.758 12.5303 104.94 13.0739Z" fill="#1C1C1C"/>
</svg>
