<svg width="384" height="189" viewBox="0 0 384 189" fill="none" xmlns="http://www.w3.org/2000/svg">
<path d="M4.36541 4.15341C4.72337 4.15625 5.08132 4.22443 5.43928 4.35795C5.79723 4.49148 6.12393 4.71307 6.41939 5.02273C6.71484 5.32955 6.95206 5.74858 7.13104 6.27983C7.31001 6.81108 7.3995 7.47727 7.3995 8.27841C7.3995 9.05398 7.32564 9.7429 7.17791 10.3452C7.03303 10.9446 6.8228 11.4503 6.54723 11.8622C6.2745 12.2741 5.94212 12.5866 5.55007 12.7997C5.16087 13.0128 4.72053 13.1193 4.22905 13.1193C3.74041 13.1193 3.30433 13.0227 2.92081 12.8295C2.54013 12.6335 2.22763 12.3622 1.98331 12.0156C1.74183 11.6662 1.587 11.2614 1.51882 10.8011H2.55859C2.65234 11.2017 2.83842 11.5327 3.11683 11.794C3.39808 12.0526 3.76882 12.1818 4.22905 12.1818C4.90234 12.1818 5.43359 11.8878 5.8228 11.2997C6.21484 10.7116 6.41087 9.88068 6.41087 8.80682H6.34268C6.18359 9.04545 5.99467 9.25142 5.77592 9.42472C5.55717 9.59801 5.31428 9.73153 5.04723 9.82528C4.78018 9.91903 4.49609 9.96591 4.19496 9.96591C3.69496 9.96591 3.23615 9.84233 2.81854 9.59517C2.40376 9.34517 2.07138 9.00284 1.82138 8.56818C1.57422 8.13068 1.45064 7.63068 1.45064 7.06818C1.45064 6.53409 1.56996 6.04545 1.80859 5.60227C2.05007 5.15625 2.38814 4.80114 2.8228 4.53693C3.2603 4.27273 3.7745 4.14489 4.36541 4.15341ZM4.36541 5.09091C4.00746 5.09091 3.68501 5.1804 3.39808 5.35938C3.11399 5.53551 2.88814 5.77415 2.72053 6.07528C2.55575 6.37358 2.47337 6.70455 2.47337 7.06818C2.47337 7.43182 2.55291 7.76278 2.712 8.06108C2.87393 8.35653 3.09411 8.59233 3.37251 8.76847C3.65376 8.94176 3.97337 9.02841 4.33132 9.02841C4.60121 9.02841 4.85263 8.97585 5.08558 8.87074C5.31854 8.76278 5.52166 8.61648 5.69496 8.43182C5.87109 8.24432 6.00888 8.03267 6.10831 7.79688C6.20774 7.55824 6.25746 7.30966 6.25746 7.05114C6.25746 6.71023 6.17507 6.39062 6.0103 6.09233C5.84837 5.79403 5.62393 5.55256 5.337 5.3679C5.05291 5.18324 4.72905 5.09091 4.36541 5.09091ZM11.9219 13.1193C11.2798 13.1193 10.733 12.9446 10.2812 12.5952C9.82955 12.2429 9.48438 11.733 9.24574 11.0653C9.0071 10.3949 8.88778 9.58523 8.88778 8.63636C8.88778 7.69318 9.0071 6.88778 9.24574 6.22017C9.48722 5.54972 9.83381 5.03835 10.2855 4.68608C10.7401 4.33097 11.2855 4.15341 11.9219 4.15341C12.5582 4.15341 13.1023 4.33097 13.554 4.68608C14.0085 5.03835 14.3551 5.54972 14.5938 6.22017C14.8352 6.88778 14.956 7.69318 14.956 8.63636C14.956 9.58523 14.8366 10.3949 14.598 11.0653C14.3594 11.733 14.0142 12.2429 13.5625 12.5952C13.1108 12.9446 12.5639 13.1193 11.9219 13.1193ZM11.9219 12.1818C12.5582 12.1818 13.0526 11.875 13.4048 11.2614C13.7571 10.6477 13.9332 9.77273 13.9332 8.63636C13.9332 7.88068 13.8523 7.23722 13.6903 6.70597C13.5313 6.17472 13.3011 5.76989 13 5.49148C12.7017 5.21307 12.3423 5.07386 11.9219 5.07386C11.2912 5.07386 10.7983 5.38494 10.4432 6.0071C10.0881 6.62642 9.91051 7.50284 9.91051 8.63636C9.91051 9.39205 9.99006 10.0341 10.1491 10.5625C10.3082 11.0909 10.5369 11.4929 10.8352 11.7685C11.1364 12.044 11.4986 12.1818 11.9219 12.1818ZM19.4219 13.1193C18.7798 13.1193 18.233 12.9446 17.7812 12.5952C17.3295 12.2429 16.9844 11.733 16.7457 11.0653C16.5071 10.3949 16.3878 9.58523 16.3878 8.63636C16.3878 7.69318 16.5071 6.88778 16.7457 6.22017C16.9872 5.54972 17.3338 5.03835 17.7855 4.68608C18.2401 4.33097 18.7855 4.15341 19.4219 4.15341C20.0582 4.15341 20.6023 4.33097 21.054 4.68608C21.5085 5.03835 21.8551 5.54972 22.0938 6.22017C22.3352 6.88778 22.456 7.69318 22.456 8.63636C22.456 9.58523 22.3366 10.3949 22.098 11.0653C21.8594 11.733 21.5142 12.2429 21.0625 12.5952C20.6108 12.9446 20.0639 13.1193 19.4219 13.1193ZM19.4219 12.1818C20.0582 12.1818 20.5526 11.875 20.9048 11.2614C21.2571 10.6477 21.4332 9.77273 21.4332 8.63636C21.4332 7.88068 21.3523 7.23722 21.1903 6.70597C21.0313 6.17472 20.8011 5.76989 20.5 5.49148C20.2017 5.21307 19.8423 5.07386 19.4219 5.07386C18.7912 5.07386 18.2983 5.38494 17.9432 6.0071C17.5881 6.62642 17.4105 7.50284 17.4105 8.63636C17.4105 9.39205 17.4901 10.0341 17.6491 10.5625C17.8082 11.0909 18.0369 11.4929 18.3352 11.7685C18.6364 12.044 18.9986 12.1818 19.4219 12.1818ZM24.2287 13V4.27273H25.2855V8.60227H25.3878L29.3082 4.27273H30.6889L27.0241 8.21023L30.6889 13H29.4105L26.3764 8.94318L25.2855 10.1705V13H24.2287Z" fill="black" fill-opacity="0.4"/>
<path d="M4.48473 60.1193C4.12678 60.1136 3.76882 60.0455 3.41087 59.9148C3.05291 59.7841 2.72621 59.5639 2.43075 59.2543C2.1353 58.9418 1.89808 58.5199 1.71911 57.9886C1.54013 57.4545 1.45064 56.7841 1.45064 55.9773C1.45064 55.2045 1.52308 54.5199 1.66797 53.9233C1.81286 53.3239 2.02308 52.8196 2.29865 52.4105C2.57422 51.9986 2.90661 51.6861 3.29581 51.473C3.68786 51.2599 4.12962 51.1534 4.62109 51.1534C5.10973 51.1534 5.54439 51.2514 5.92507 51.4474C6.30859 51.6406 6.62109 51.9105 6.86257 52.2571C7.10405 52.6037 7.2603 53.0028 7.33132 53.4545H6.29155C6.19496 53.0625 6.00746 52.7372 5.72905 52.4787C5.45064 52.2202 5.08132 52.0909 4.62109 52.0909C3.94496 52.0909 3.41229 52.3849 3.02308 52.973C2.63672 53.5611 2.44212 54.3864 2.43928 55.4489H2.50746C2.66655 55.2074 2.85547 55.0014 3.07422 54.831C3.29581 54.6577 3.54013 54.5241 3.80717 54.4304C4.07422 54.3366 4.35689 54.2898 4.65518 54.2898C5.15518 54.2898 5.61257 54.4148 6.02734 54.6648C6.44212 54.9119 6.7745 55.2543 7.0245 55.6918C7.2745 56.1264 7.3995 56.625 7.3995 57.1875C7.3995 57.7273 7.27876 58.2216 7.03729 58.6705C6.79581 59.1165 6.45632 59.4716 6.01882 59.7358C5.58416 59.9972 5.0728 60.125 4.48473 60.1193ZM4.48473 59.1818C4.84268 59.1818 5.16371 59.0923 5.4478 58.9134C5.73473 58.7344 5.96058 58.4943 6.12536 58.1932C6.29297 57.892 6.37678 57.5568 6.37678 57.1875C6.37678 56.8267 6.29581 56.4986 6.13388 56.2031C5.97479 55.9048 5.75462 55.6676 5.47337 55.4915C5.19496 55.3153 4.87678 55.2273 4.51882 55.2273C4.24893 55.2273 3.99751 55.2812 3.76456 55.3892C3.53161 55.4943 3.32706 55.6392 3.15092 55.8239C2.97763 56.0085 2.84126 56.2202 2.74183 56.4588C2.6424 56.6946 2.59268 56.9432 2.59268 57.2045C2.59268 57.5511 2.67365 57.875 2.83558 58.1761C3.00036 58.4773 3.22479 58.7202 3.50888 58.9048C3.79581 59.0895 4.12109 59.1818 4.48473 59.1818ZM11.9219 60.1193C11.2798 60.1193 10.733 59.9446 10.2812 59.5952C9.82955 59.2429 9.48438 58.733 9.24574 58.0653C9.0071 57.3949 8.88778 56.5852 8.88778 55.6364C8.88778 54.6932 9.0071 53.8878 9.24574 53.2202C9.48722 52.5497 9.83381 52.0384 10.2855 51.6861C10.7401 51.331 11.2855 51.1534 11.9219 51.1534C12.5582 51.1534 13.1023 51.331 13.554 51.6861C14.0085 52.0384 14.3551 52.5497 14.5938 53.2202C14.8352 53.8878 14.956 54.6932 14.956 55.6364C14.956 56.5852 14.8366 57.3949 14.598 58.0653C14.3594 58.733 14.0142 59.2429 13.5625 59.5952C13.1108 59.9446 12.5639 60.1193 11.9219 60.1193ZM11.9219 59.1818C12.5582 59.1818 13.0526 58.875 13.4048 58.2614C13.7571 57.6477 13.9332 56.7727 13.9332 55.6364C13.9332 54.8807 13.8523 54.2372 13.6903 53.706C13.5313 53.1747 13.3011 52.7699 13 52.4915C12.7017 52.2131 12.3423 52.0739 11.9219 52.0739C11.2912 52.0739 10.7983 52.3849 10.4432 53.0071C10.0881 53.6264 9.91051 54.5028 9.91051 55.6364C9.91051 56.392 9.99006 57.0341 10.1491 57.5625C10.3082 58.0909 10.5369 58.4929 10.8352 58.7685C11.1364 59.044 11.4986 59.1818 11.9219 59.1818ZM19.4219 60.1193C18.7798 60.1193 18.233 59.9446 17.7812 59.5952C17.3295 59.2429 16.9844 58.733 16.7457 58.0653C16.5071 57.3949 16.3878 56.5852 16.3878 55.6364C16.3878 54.6932 16.5071 53.8878 16.7457 53.2202C16.9872 52.5497 17.3338 52.0384 17.7855 51.6861C18.2401 51.331 18.7855 51.1534 19.4219 51.1534C20.0582 51.1534 20.6023 51.331 21.054 51.6861C21.5085 52.0384 21.8551 52.5497 22.0938 53.2202C22.3352 53.8878 22.456 54.6932 22.456 55.6364C22.456 56.5852 22.3366 57.3949 22.098 58.0653C21.8594 58.733 21.5142 59.2429 21.0625 59.5952C20.6108 59.9446 20.0639 60.1193 19.4219 60.1193ZM19.4219 59.1818C20.0582 59.1818 20.5526 58.875 20.9048 58.2614C21.2571 57.6477 21.4332 56.7727 21.4332 55.6364C21.4332 54.8807 21.3523 54.2372 21.1903 53.706C21.0313 53.1747 20.8011 52.7699 20.5 52.4915C20.2017 52.2131 19.8423 52.0739 19.4219 52.0739C18.7912 52.0739 18.2983 52.3849 17.9432 53.0071C17.5881 53.6264 17.4105 54.5028 17.4105 55.6364C17.4105 56.392 17.4901 57.0341 17.6491 57.5625C17.8082 58.0909 18.0369 58.4929 18.3352 58.7685C18.6364 59.044 18.9986 59.1818 19.4219 59.1818ZM24.2287 60V51.2727H25.2855V55.6023H25.3878L29.3082 51.2727H30.6889L27.0241 55.2102L30.6889 60H29.4105L26.3764 55.9432L25.2855 57.1705V60H24.2287Z" fill="black" fill-opacity="0.4"/>
<path d="M4.38352 107.119C3.82102 107.119 3.3196 107.023 2.87926 106.83C2.44176 106.636 2.09375 106.368 1.83523 106.024C1.57955 105.678 1.44034 105.276 1.41761 104.818H2.49148C2.5142 105.099 2.6108 105.342 2.78125 105.547C2.9517 105.749 3.17472 105.905 3.45028 106.016C3.72585 106.126 4.03125 106.182 4.36648 106.182C4.74148 106.182 5.07386 106.116 5.36364 105.986C5.65341 105.855 5.88068 105.673 6.04545 105.44C6.21023 105.207 6.29261 104.938 6.29261 104.631C6.29261 104.31 6.21307 104.027 6.05398 103.783C5.89489 103.536 5.66193 103.342 5.35511 103.203C5.0483 103.064 4.6733 102.994 4.23011 102.994H3.53125V102.057H4.23011C4.5767 102.057 4.88068 101.994 5.14205 101.869C5.40625 101.744 5.61222 101.568 5.75994 101.341C5.91051 101.114 5.9858 100.847 5.9858 100.54C5.9858 100.244 5.92045 99.9872 5.78977 99.7685C5.65909 99.5497 5.47443 99.3793 5.2358 99.2571C5 99.1349 4.72159 99.0739 4.40057 99.0739C4.09943 99.0739 3.81534 99.1293 3.5483 99.2401C3.28409 99.348 3.06818 99.5057 2.90057 99.7131C2.73295 99.9176 2.64205 100.165 2.62784 100.455H1.60511C1.62216 99.9972 1.75994 99.5966 2.01847 99.2528C2.27699 98.9062 2.61506 98.6364 3.03267 98.4432C3.45313 98.25 3.91477 98.1534 4.41761 98.1534C4.95739 98.1534 5.42045 98.2628 5.80682 98.4815C6.19318 98.6974 6.49006 98.983 6.69744 99.3381C6.90483 99.6932 7.00852 100.077 7.00852 100.489C7.00852 100.98 6.87926 101.399 6.62074 101.746C6.36506 102.092 6.01705 102.332 5.5767 102.466V102.534C6.12784 102.625 6.55824 102.859 6.8679 103.237C7.17756 103.612 7.33239 104.077 7.33239 104.631C7.33239 105.105 7.20313 105.531 6.9446 105.909C6.68892 106.284 6.33949 106.58 5.89631 106.795C5.45313 107.011 4.94886 107.119 4.38352 107.119ZM11.9219 107.119C11.2798 107.119 10.733 106.945 10.2812 106.595C9.82955 106.243 9.48438 105.733 9.24574 105.065C9.0071 104.395 8.88778 103.585 8.88778 102.636C8.88778 101.693 9.0071 100.888 9.24574 100.22C9.48722 99.5497 9.83381 99.0384 10.2855 98.6861C10.7401 98.331 11.2855 98.1534 11.9219 98.1534C12.5582 98.1534 13.1023 98.331 13.554 98.6861C14.0085 99.0384 14.3551 99.5497 14.5938 100.22C14.8352 100.888 14.956 101.693 14.956 102.636C14.956 103.585 14.8366 104.395 14.598 105.065C14.3594 105.733 14.0142 106.243 13.5625 106.595C13.1108 106.945 12.5639 107.119 11.9219 107.119ZM11.9219 106.182C12.5582 106.182 13.0526 105.875 13.4048 105.261C13.7571 104.648 13.9332 103.773 13.9332 102.636C13.9332 101.881 13.8523 101.237 13.6903 100.706C13.5313 100.175 13.3011 99.7699 13 99.4915C12.7017 99.2131 12.3423 99.0739 11.9219 99.0739C11.2912 99.0739 10.7983 99.3849 10.4432 100.007C10.0881 100.626 9.91051 101.503 9.91051 102.636C9.91051 103.392 9.99006 104.034 10.1491 104.562C10.3082 105.091 10.5369 105.493 10.8352 105.768C11.1364 106.044 11.4986 106.182 11.9219 106.182ZM19.4219 107.119C18.7798 107.119 18.233 106.945 17.7812 106.595C17.3295 106.243 16.9844 105.733 16.7457 105.065C16.5071 104.395 16.3878 103.585 16.3878 102.636C16.3878 101.693 16.5071 100.888 16.7457 100.22C16.9872 99.5497 17.3338 99.0384 17.7855 98.6861C18.2401 98.331 18.7855 98.1534 19.4219 98.1534C20.0582 98.1534 20.6023 98.331 21.054 98.6861C21.5085 99.0384 21.8551 99.5497 22.0938 100.22C22.3352 100.888 22.456 101.693 22.456 102.636C22.456 103.585 22.3366 104.395 22.098 105.065C21.8594 105.733 21.5142 106.243 21.0625 106.595C20.6108 106.945 20.0639 107.119 19.4219 107.119ZM19.4219 106.182C20.0582 106.182 20.5526 105.875 20.9048 105.261C21.2571 104.648 21.4332 103.773 21.4332 102.636C21.4332 101.881 21.3523 101.237 21.1903 100.706C21.0313 100.175 20.8011 99.7699 20.5 99.4915C20.2017 99.2131 19.8423 99.0739 19.4219 99.0739C18.7912 99.0739 18.2983 99.3849 17.9432 100.007C17.5881 100.626 17.4105 101.503 17.4105 102.636C17.4105 103.392 17.4901 104.034 17.6491 104.562C17.8082 105.091 18.0369 105.493 18.3352 105.768C18.6364 106.044 18.9986 106.182 19.4219 106.182ZM24.2287 107V98.2727H25.2855V102.602H25.3878L29.3082 98.2727H30.6889L27.0241 102.21L30.6889 107H29.4105L26.3764 102.943L25.2855 104.17V107H24.2287Z" fill="black" fill-opacity="0.4"/>
<path d="M27.25 154.119C26.608 154.119 26.0611 153.945 25.6094 153.595C25.1577 153.243 24.8125 152.733 24.5739 152.065C24.3352 151.395 24.2159 150.585 24.2159 149.636C24.2159 148.693 24.3352 147.888 24.5739 147.22C24.8153 146.55 25.1619 146.038 25.6136 145.686C26.0682 145.331 26.6136 145.153 27.25 145.153C27.8864 145.153 28.4304 145.331 28.8821 145.686C29.3366 146.038 29.6832 146.55 29.9219 147.22C30.1634 147.888 30.2841 148.693 30.2841 149.636C30.2841 150.585 30.1648 151.395 29.9261 152.065C29.6875 152.733 29.3423 153.243 28.8906 153.595C28.4389 153.945 27.892 154.119 27.25 154.119ZM27.25 153.182C27.8864 153.182 28.3807 152.875 28.733 152.261C29.0852 151.648 29.2614 150.773 29.2614 149.636C29.2614 148.881 29.1804 148.237 29.0185 147.706C28.8594 147.175 28.6293 146.77 28.3281 146.491C28.0298 146.213 27.6705 146.074 27.25 146.074C26.6193 146.074 26.1264 146.385 25.7713 147.007C25.4162 147.626 25.2386 148.503 25.2386 149.636C25.2386 150.392 25.3182 151.034 25.4773 151.562C25.6364 152.091 25.8651 152.493 26.1634 152.768C26.4645 153.044 26.8267 153.182 27.25 153.182Z" fill="black" fill-opacity="0.4"/>
<line x1="47.5" y1="15.5" x2="383.5" y2="15.5" stroke="black" stroke-opacity="0.05" stroke-linecap="round"/>
<line x1="47.5" y1="63.1667" x2="383.5" y2="63.1667" stroke="black" stroke-opacity="0.05" stroke-linecap="round"/>
<line x1="47.5" y1="110.833" x2="383.5" y2="110.833" stroke="black" stroke-opacity="0.05" stroke-linecap="round"/>
<line x1="47.5" y1="158.5" x2="383.5" y2="158.5" stroke="black" stroke-opacity="0.2" stroke-linecap="round"/>
<path d="M61.105 184V175.273H62.1618V183.062H66.2186V184H61.105ZM67.7186 184V177.455H68.7243V184H67.7186ZM68.23 176.364C68.034 176.364 67.8649 176.297 67.7229 176.163C67.5837 176.03 67.5141 175.869 67.5141 175.682C67.5141 175.494 67.5837 175.334 67.7229 175.2C67.8649 175.067 68.034 175 68.23 175C68.426 175 68.5936 175.067 68.7328 175.2C68.8749 175.334 68.9459 175.494 68.9459 175.682C68.9459 175.869 68.8749 176.03 68.7328 176.163C68.5936 176.297 68.426 176.364 68.23 176.364ZM71.572 180.062V184H70.5663V177.455H71.5379V178.477H71.6231C71.7765 178.145 72.0095 177.878 72.322 177.676C72.6345 177.472 73.0379 177.369 73.5322 177.369C73.9754 177.369 74.3632 177.46 74.6956 177.642C75.0279 177.821 75.2865 178.094 75.4711 178.46C75.6558 178.824 75.7481 179.284 75.7481 179.841V184H74.7424V179.909C74.7424 179.395 74.6089 178.994 74.3419 178.707C74.0748 178.418 73.7083 178.273 73.2424 178.273C72.9214 178.273 72.6345 178.342 72.3816 178.482C72.1316 178.621 71.9342 178.824 71.7893 179.091C71.6444 179.358 71.572 179.682 71.572 180.062ZM81.7108 181.324V177.455H82.7165V184H81.7108V182.892H81.6426C81.4892 183.224 81.2506 183.507 80.9267 183.74C80.6029 183.97 80.1938 184.085 79.6995 184.085C79.2904 184.085 78.9267 183.996 78.6085 183.817C78.2904 183.635 78.0404 183.362 77.8585 182.999C77.6767 182.632 77.5858 182.17 77.5858 181.614V177.455H78.5915V181.545C78.5915 182.023 78.725 182.403 78.9921 182.688C79.262 182.972 79.6057 183.114 80.0233 183.114C80.2733 183.114 80.5276 183.05 80.7861 182.922C81.0475 182.794 81.2662 182.598 81.4424 182.334C81.6213 182.07 81.7108 181.733 81.7108 181.324ZM85.3085 177.455L86.8767 180.131L88.4448 177.455H89.6039L87.4903 180.727L89.6039 184H88.4448L86.8767 181.46L85.3085 184H84.1494L86.2289 180.727L84.1494 177.455H85.3085Z" fill="black" fill-opacity="0.4"/>
<path d="M120.236 175.273H121.498L124.464 182.517H124.566L127.532 175.273H128.793V184H127.805V177.369H127.719L124.992 184H124.038L121.31 177.369H121.225V184H120.236V175.273ZM132.702 184.153C132.287 184.153 131.911 184.075 131.573 183.919C131.235 183.76 130.966 183.531 130.767 183.233C130.568 182.932 130.469 182.568 130.469 182.142C130.469 181.767 130.543 181.463 130.691 181.23C130.838 180.994 131.036 180.81 131.283 180.676C131.53 180.543 131.803 180.443 132.101 180.378C132.402 180.31 132.705 180.256 133.009 180.216C133.407 180.165 133.729 180.126 133.976 180.101C134.226 180.072 134.408 180.026 134.522 179.96C134.638 179.895 134.696 179.781 134.696 179.619V179.585C134.696 179.165 134.581 178.838 134.351 178.605C134.124 178.372 133.779 178.256 133.316 178.256C132.836 178.256 132.459 178.361 132.186 178.571C131.914 178.781 131.722 179.006 131.611 179.244L130.657 178.903C130.827 178.506 131.054 178.196 131.338 177.974C131.625 177.75 131.938 177.594 132.276 177.506C132.617 177.415 132.952 177.369 133.282 177.369C133.492 177.369 133.733 177.395 134.006 177.446C134.282 177.494 134.547 177.595 134.803 177.749C135.061 177.902 135.276 178.134 135.446 178.443C135.617 178.753 135.702 179.168 135.702 179.688V184H134.696V183.114H134.645C134.577 183.256 134.463 183.408 134.304 183.57C134.145 183.732 133.934 183.869 133.669 183.983C133.405 184.097 133.083 184.153 132.702 184.153ZM132.855 183.25C133.253 183.25 133.588 183.172 133.861 183.016C134.137 182.859 134.344 182.658 134.483 182.411C134.625 182.163 134.696 181.903 134.696 181.631V180.71C134.654 180.761 134.56 180.808 134.415 180.851C134.273 180.891 134.108 180.926 133.921 180.957C133.736 180.986 133.556 181.011 133.38 181.034C133.206 181.054 133.066 181.071 132.958 181.085C132.696 181.119 132.452 181.175 132.225 181.251C132 181.325 131.818 181.437 131.679 181.588C131.543 181.736 131.475 181.937 131.475 182.193C131.475 182.543 131.604 182.807 131.863 182.986C132.124 183.162 132.455 183.25 132.855 183.25ZM140.197 184.136C139.583 184.136 139.055 183.991 138.611 183.702C138.168 183.412 137.827 183.013 137.589 182.504C137.35 181.996 137.231 181.415 137.231 180.761C137.231 180.097 137.353 179.51 137.597 179.001C137.844 178.49 138.188 178.091 138.629 177.804C139.072 177.514 139.589 177.369 140.18 177.369C140.64 177.369 141.055 177.455 141.424 177.625C141.793 177.795 142.096 178.034 142.332 178.341C142.567 178.648 142.714 179.006 142.771 179.415H141.765C141.688 179.116 141.518 178.852 141.254 178.622C140.992 178.389 140.64 178.273 140.197 178.273C139.805 178.273 139.461 178.375 139.165 178.58C138.873 178.781 138.644 179.067 138.479 179.436C138.317 179.803 138.236 180.233 138.236 180.727C138.236 181.233 138.316 181.673 138.475 182.048C138.637 182.423 138.864 182.714 139.157 182.922C139.452 183.129 139.799 183.233 140.197 183.233C140.458 183.233 140.695 183.188 140.908 183.097C141.121 183.006 141.302 182.875 141.45 182.705C141.597 182.534 141.702 182.33 141.765 182.091H142.771C142.714 182.477 142.573 182.825 142.349 183.135C142.127 183.442 141.833 183.686 141.467 183.868C141.103 184.047 140.68 184.136 140.197 184.136Z" fill="black" fill-opacity="0.4"/>
<path d="M178.517 184V177.455H179.523V184H178.517ZM179.028 176.364C178.832 176.364 178.663 176.297 178.521 176.163C178.382 176.03 178.312 175.869 178.312 175.682C178.312 175.494 178.382 175.334 178.521 175.2C178.663 175.067 178.832 175 179.028 175C179.224 175 179.392 175.067 179.531 175.2C179.673 175.334 179.744 175.494 179.744 175.682C179.744 175.869 179.673 176.03 179.531 176.163C179.392 176.297 179.224 176.364 179.028 176.364ZM188.865 179.636C188.865 180.557 188.698 181.352 188.366 182.023C188.034 182.693 187.578 183.21 186.998 183.574C186.418 183.938 185.757 184.119 185.012 184.119C184.268 184.119 183.606 183.938 183.026 183.574C182.447 183.21 181.991 182.693 181.659 182.023C181.326 181.352 181.16 180.557 181.16 179.636C181.16 178.716 181.326 177.92 181.659 177.25C181.991 176.58 182.447 176.062 183.026 175.699C183.606 175.335 184.268 175.153 185.012 175.153C185.757 175.153 186.418 175.335 186.998 175.699C187.578 176.062 188.034 176.58 188.366 177.25C188.698 177.92 188.865 178.716 188.865 179.636ZM187.842 179.636C187.842 178.881 187.715 178.243 187.463 177.723C187.213 177.203 186.873 176.81 186.444 176.543C186.018 176.276 185.541 176.142 185.012 176.142C184.484 176.142 184.005 176.276 183.576 176.543C183.15 176.81 182.811 177.203 182.558 177.723C182.308 178.243 182.183 178.881 182.183 179.636C182.183 180.392 182.308 181.03 182.558 181.55C182.811 182.07 183.15 182.463 183.576 182.73C184.005 182.997 184.484 183.131 185.012 183.131C185.541 183.131 186.018 182.997 186.444 182.73C186.873 182.463 187.213 182.07 187.463 181.55C187.715 181.03 187.842 180.392 187.842 179.636ZM195.414 177.455C195.363 177.023 195.156 176.688 194.792 176.449C194.428 176.21 193.982 176.091 193.454 176.091C193.068 176.091 192.73 176.153 192.44 176.278C192.153 176.403 191.928 176.575 191.766 176.794C191.607 177.013 191.528 177.261 191.528 177.54C191.528 177.773 191.583 177.973 191.694 178.141C191.808 178.305 191.953 178.443 192.129 178.554C192.305 178.662 192.49 178.751 192.683 178.822C192.876 178.891 193.053 178.946 193.215 178.989L194.102 179.227C194.329 179.287 194.582 179.369 194.86 179.474C195.141 179.58 195.41 179.723 195.666 179.905C195.924 180.084 196.137 180.314 196.305 180.595C196.472 180.876 196.556 181.222 196.556 181.631C196.556 182.102 196.433 182.528 196.186 182.909C195.941 183.29 195.583 183.592 195.112 183.817C194.643 184.041 194.073 184.153 193.403 184.153C192.778 184.153 192.237 184.053 191.779 183.851C191.325 183.649 190.967 183.368 190.705 183.007C190.447 182.646 190.301 182.227 190.266 181.75H191.357C191.386 182.08 191.497 182.352 191.69 182.568C191.886 182.781 192.133 182.94 192.431 183.045C192.732 183.148 193.056 183.199 193.403 183.199C193.806 183.199 194.168 183.134 194.49 183.003C194.811 182.869 195.065 182.685 195.252 182.449C195.44 182.21 195.534 181.932 195.534 181.614C195.534 181.324 195.453 181.088 195.291 180.906C195.129 180.724 194.916 180.577 194.651 180.463C194.387 180.349 194.102 180.25 193.795 180.165L192.721 179.858C192.039 179.662 191.499 179.382 191.102 179.018C190.704 178.655 190.505 178.179 190.505 177.591C190.505 177.102 190.637 176.676 190.901 176.312C191.168 175.946 191.526 175.662 191.975 175.46C192.427 175.256 192.931 175.153 193.488 175.153C194.051 175.153 194.551 175.254 194.988 175.456C195.426 175.655 195.772 175.928 196.028 176.274C196.286 176.621 196.423 177.014 196.437 177.455H195.414Z" fill="black" fill-opacity="0.4"/>
<path d="M220.391 184L218.005 175.273H219.079L220.903 182.381H220.988L222.846 175.273H224.039L225.897 182.381H225.982L227.806 175.273H228.88L226.494 184H225.403L223.477 177.045H223.408L221.482 184H220.391ZM230.06 184V177.455H231.066V184H230.06ZM230.572 176.364C230.376 176.364 230.207 176.297 230.065 176.163C229.925 176.03 229.856 175.869 229.856 175.682C229.856 175.494 229.925 175.334 230.065 175.2C230.207 175.067 230.376 175 230.572 175C230.768 175 230.935 175.067 231.075 175.2C231.217 175.334 231.288 175.494 231.288 175.682C231.288 175.869 231.217 176.03 231.075 176.163C230.935 176.297 230.768 176.364 230.572 176.364ZM233.914 180.062V184H232.908V177.455H233.88V178.477H233.965C234.118 178.145 234.351 177.878 234.664 177.676C234.976 177.472 235.38 177.369 235.874 177.369C236.317 177.369 236.705 177.46 237.037 177.642C237.37 177.821 237.628 178.094 237.813 178.46C237.998 178.824 238.09 179.284 238.09 179.841V184H237.084V179.909C237.084 179.395 236.951 178.994 236.684 178.707C236.417 178.418 236.05 178.273 235.584 178.273C235.263 178.273 234.976 178.342 234.723 178.482C234.473 178.621 234.276 178.824 234.131 179.091C233.986 179.358 233.914 179.682 233.914 180.062ZM242.399 184.136C241.854 184.136 241.372 183.999 240.955 183.723C240.537 183.445 240.21 183.053 239.974 182.547C239.739 182.038 239.621 181.438 239.621 180.744C239.621 180.057 239.739 179.46 239.974 178.955C240.21 178.449 240.538 178.058 240.959 177.783C241.379 177.507 241.865 177.369 242.416 177.369C242.842 177.369 243.179 177.44 243.426 177.582C243.676 177.722 243.867 177.881 243.997 178.06C244.131 178.236 244.234 178.381 244.308 178.494H244.394V175.273H245.399V184H244.428V182.994H244.308C244.234 183.114 244.129 183.264 243.993 183.446C243.857 183.625 243.662 183.786 243.409 183.928C243.156 184.067 242.82 184.136 242.399 184.136ZM242.536 183.233C242.939 183.233 243.28 183.128 243.558 182.918C243.837 182.705 244.048 182.411 244.193 182.036C244.338 181.658 244.411 181.222 244.411 180.727C244.411 180.239 244.34 179.811 244.198 179.445C244.055 179.075 243.845 178.788 243.567 178.584C243.288 178.376 242.945 178.273 242.536 178.273C242.109 178.273 241.754 178.382 241.47 178.601C241.189 178.817 240.977 179.111 240.835 179.483C240.696 179.852 240.626 180.267 240.626 180.727C240.626 181.193 240.698 181.616 240.84 181.997C240.984 182.375 241.198 182.676 241.479 182.901C241.763 183.122 242.115 183.233 242.536 183.233ZM250.04 184.136C249.449 184.136 248.93 183.996 248.484 183.714C248.041 183.433 247.695 183.04 247.445 182.534C247.198 182.028 247.074 181.437 247.074 180.761C247.074 180.08 247.198 179.484 247.445 178.976C247.695 178.467 248.041 178.072 248.484 177.791C248.93 177.51 249.449 177.369 250.04 177.369C250.631 177.369 251.148 177.51 251.591 177.791C252.037 178.072 252.384 178.467 252.631 178.976C252.881 179.484 253.006 180.08 253.006 180.761C253.006 181.437 252.881 182.028 252.631 182.534C252.384 183.04 252.037 183.433 251.591 183.714C251.148 183.996 250.631 184.136 250.04 184.136ZM250.04 183.233C250.489 183.233 250.858 183.118 251.148 182.888C251.438 182.658 251.652 182.355 251.791 181.98C251.93 181.605 252 181.199 252 180.761C252 180.324 251.93 179.916 251.791 179.538C251.652 179.161 251.438 178.855 251.148 178.622C250.858 178.389 250.489 178.273 250.04 178.273C249.591 178.273 249.222 178.389 248.932 178.622C248.642 178.855 248.428 179.161 248.288 179.538C248.149 179.916 248.08 180.324 248.08 180.761C248.08 181.199 248.149 181.605 248.288 181.98C248.428 182.355 248.642 182.658 248.932 182.888C249.222 183.118 249.591 183.233 250.04 183.233ZM255.801 184L253.807 177.455H254.864L256.278 182.466H256.347L257.744 177.455H258.818L260.199 182.449H260.267L261.682 177.455H262.739L260.744 184H259.756L258.324 178.972H258.222L256.79 184H255.801ZM268.705 178.92L267.801 179.176C267.744 179.026 267.661 178.879 267.55 178.737C267.442 178.592 267.294 178.473 267.107 178.379C266.919 178.286 266.679 178.239 266.386 178.239C265.986 178.239 265.652 178.331 265.385 178.516C265.121 178.697 264.989 178.929 264.989 179.21C264.989 179.46 265.08 179.658 265.261 179.803C265.443 179.947 265.727 180.068 266.114 180.165L267.085 180.403C267.671 180.545 268.107 180.763 268.394 181.055C268.68 181.345 268.824 181.719 268.824 182.176C268.824 182.551 268.716 182.886 268.5 183.182C268.287 183.477 267.989 183.71 267.605 183.881C267.222 184.051 266.776 184.136 266.267 184.136C265.599 184.136 265.047 183.991 264.609 183.702C264.172 183.412 263.895 182.989 263.778 182.432L264.733 182.193C264.824 182.545 264.996 182.81 265.249 182.986C265.504 183.162 265.838 183.25 266.25 183.25C266.719 183.25 267.091 183.151 267.367 182.952C267.645 182.75 267.784 182.509 267.784 182.227C267.784 182 267.705 181.81 267.546 181.656C267.386 181.5 267.142 181.384 266.813 181.307L265.722 181.051C265.122 180.909 264.682 180.689 264.401 180.391C264.122 180.089 263.983 179.713 263.983 179.261C263.983 178.892 264.087 178.565 264.294 178.281C264.504 177.997 264.79 177.774 265.151 177.612C265.514 177.45 265.926 177.369 266.386 177.369C267.034 177.369 267.543 177.511 267.912 177.795C268.284 178.08 268.548 178.455 268.705 178.92Z" fill="black" fill-opacity="0.4"/>
<path d="M279.01 184H277.903L281.107 175.273H282.198L285.403 184H284.295L281.687 176.653H281.618L279.01 184ZM279.42 180.591H283.885V181.528H279.42V180.591ZM287.631 180.062V184H286.626V177.455H287.597V178.477H287.682C287.836 178.145 288.069 177.878 288.381 177.676C288.694 177.472 289.097 177.369 289.591 177.369C290.035 177.369 290.422 177.46 290.755 177.642C291.087 177.821 291.346 178.094 291.53 178.46C291.715 178.824 291.807 179.284 291.807 179.841V184H290.802V179.909C290.802 179.395 290.668 178.994 290.401 178.707C290.134 178.418 289.768 178.273 289.302 178.273C288.981 178.273 288.694 178.342 288.441 178.482C288.191 178.621 287.993 178.824 287.849 179.091C287.704 179.358 287.631 179.682 287.631 180.062ZM296.117 184.136C295.571 184.136 295.09 183.999 294.672 183.723C294.254 183.445 293.928 183.053 293.692 182.547C293.456 182.038 293.338 181.438 293.338 180.744C293.338 180.057 293.456 179.46 293.692 178.955C293.928 178.449 294.256 178.058 294.676 177.783C295.097 177.507 295.583 177.369 296.134 177.369C296.56 177.369 296.897 177.44 297.144 177.582C297.394 177.722 297.584 177.881 297.715 178.06C297.848 178.236 297.952 178.381 298.026 178.494H298.111V175.273H299.117V184H298.145V182.994H298.026C297.952 183.114 297.847 183.264 297.71 183.446C297.574 183.625 297.379 183.786 297.127 183.928C296.874 184.067 296.537 184.136 296.117 184.136ZM296.253 183.233C296.656 183.233 296.997 183.128 297.276 182.918C297.554 182.705 297.766 182.411 297.911 182.036C298.056 181.658 298.128 181.222 298.128 180.727C298.128 180.239 298.057 179.811 297.915 179.445C297.773 179.075 297.563 178.788 297.284 178.584C297.006 178.376 296.662 178.273 296.253 178.273C295.827 178.273 295.472 178.382 295.188 178.601C294.906 178.817 294.695 179.111 294.553 179.483C294.414 179.852 294.344 180.267 294.344 180.727C294.344 181.193 294.415 181.616 294.557 181.997C294.702 182.375 294.915 182.676 295.196 182.901C295.48 183.122 295.833 183.233 296.253 183.233ZM301.098 184V177.455H302.07V178.443H302.138C302.257 178.119 302.473 177.857 302.786 177.655C303.098 177.453 303.45 177.352 303.843 177.352C303.916 177.352 304.009 177.354 304.12 177.357C304.23 177.359 304.314 177.364 304.371 177.369V178.392C304.337 178.384 304.259 178.371 304.137 178.354C304.017 178.334 303.891 178.324 303.757 178.324C303.439 178.324 303.155 178.391 302.905 178.524C302.658 178.655 302.462 178.837 302.317 179.07C302.175 179.3 302.104 179.562 302.104 179.858V184H301.098ZM308.023 184.136C307.432 184.136 306.914 183.996 306.468 183.714C306.024 183.433 305.678 183.04 305.428 182.534C305.181 182.028 305.057 181.437 305.057 180.761C305.057 180.08 305.181 179.484 305.428 178.976C305.678 178.467 306.024 178.072 306.468 177.791C306.914 177.51 307.432 177.369 308.023 177.369C308.614 177.369 309.131 177.51 309.574 177.791C310.02 178.072 310.367 178.467 310.614 178.976C310.864 179.484 310.989 180.08 310.989 180.761C310.989 181.437 310.864 182.028 310.614 182.534C310.367 183.04 310.02 183.433 309.574 183.714C309.131 183.996 308.614 184.136 308.023 184.136ZM308.023 183.233C308.472 183.233 308.841 183.118 309.131 182.888C309.421 182.658 309.635 182.355 309.774 181.98C309.914 181.605 309.983 181.199 309.983 180.761C309.983 180.324 309.914 179.916 309.774 179.538C309.635 179.161 309.421 178.855 309.131 178.622C308.841 178.389 308.472 178.273 308.023 178.273C307.574 178.273 307.205 178.389 306.915 178.622C306.625 178.855 306.411 179.161 306.272 179.538C306.132 179.916 306.063 180.324 306.063 180.761C306.063 181.199 306.132 181.605 306.272 181.98C306.411 182.355 306.625 182.658 306.915 182.888C307.205 183.118 307.574 183.233 308.023 183.233ZM312.524 184V177.455H313.53V184H312.524ZM313.035 176.364C312.839 176.364 312.67 176.297 312.528 176.163C312.389 176.03 312.319 175.869 312.319 175.682C312.319 175.494 312.389 175.334 312.528 175.2C312.67 175.067 312.839 175 313.035 175C313.231 175 313.399 175.067 313.538 175.2C313.68 175.334 313.751 175.494 313.751 175.682C313.751 175.869 313.68 176.03 313.538 176.163C313.399 176.297 313.231 176.364 313.035 176.364ZM317.843 184.136C317.298 184.136 316.816 183.999 316.399 183.723C315.981 183.445 315.654 183.053 315.419 182.547C315.183 182.038 315.065 181.438 315.065 180.744C315.065 180.057 315.183 179.46 315.419 178.955C315.654 178.449 315.982 178.058 316.403 177.783C316.823 177.507 317.309 177.369 317.86 177.369C318.286 177.369 318.623 177.44 318.87 177.582C319.12 177.722 319.311 177.881 319.441 178.06C319.575 178.236 319.678 178.381 319.752 178.494H319.838V175.273H320.843V184H319.872V182.994H319.752C319.678 183.114 319.573 183.264 319.437 183.446C319.301 183.625 319.106 183.786 318.853 183.928C318.6 184.067 318.264 184.136 317.843 184.136ZM317.98 183.233C318.383 183.233 318.724 183.128 319.002 182.918C319.281 182.705 319.492 182.411 319.637 182.036C319.782 181.658 319.855 181.222 319.855 180.727C319.855 180.239 319.784 179.811 319.642 179.445C319.499 179.075 319.289 178.788 319.011 178.584C318.732 178.376 318.389 178.273 317.98 178.273C317.553 178.273 317.198 178.382 316.914 178.601C316.633 178.817 316.421 179.111 316.279 179.483C316.14 179.852 316.071 180.267 316.071 180.727C316.071 181.193 316.142 181.616 316.284 181.997C316.428 182.375 316.642 182.676 316.923 182.901C317.207 183.122 317.559 183.233 317.98 183.233Z" fill="black" fill-opacity="0.4"/>
<path d="M348.247 179.636C348.247 180.557 348.081 181.352 347.749 182.023C347.416 182.693 346.96 183.21 346.381 183.574C345.801 183.938 345.139 184.119 344.395 184.119C343.651 184.119 342.989 183.938 342.409 183.574C341.83 183.21 341.374 182.693 341.041 182.023C340.709 181.352 340.543 180.557 340.543 179.636C340.543 178.716 340.709 177.92 341.041 177.25C341.374 176.58 341.83 176.062 342.409 175.699C342.989 175.335 343.651 175.153 344.395 175.153C345.139 175.153 345.801 175.335 346.381 175.699C346.96 176.062 347.416 176.58 347.749 177.25C348.081 177.92 348.247 178.716 348.247 179.636ZM347.225 179.636C347.225 178.881 347.098 178.243 346.845 177.723C346.595 177.203 346.256 176.81 345.827 176.543C345.401 176.276 344.923 176.142 344.395 176.142C343.867 176.142 343.388 176.276 342.959 176.543C342.533 176.81 342.193 177.203 341.941 177.723C341.691 178.243 341.566 178.881 341.566 179.636C341.566 180.392 341.691 181.03 341.941 181.55C342.193 182.07 342.533 182.463 342.959 182.73C343.388 182.997 343.867 183.131 344.395 183.131C344.923 183.131 345.401 182.997 345.827 182.73C346.256 182.463 346.595 182.07 346.845 181.55C347.098 181.03 347.225 180.392 347.225 179.636ZM352.735 177.455V178.307H349.342V177.455H352.735ZM350.331 175.886H351.337V182.125C351.337 182.409 351.378 182.622 351.46 182.764C351.546 182.903 351.654 182.997 351.784 183.045C351.918 183.091 352.058 183.114 352.206 183.114C352.317 183.114 352.408 183.108 352.479 183.097C352.55 183.082 352.607 183.071 352.649 183.062L352.854 183.966C352.786 183.991 352.691 184.017 352.568 184.043C352.446 184.071 352.291 184.085 352.104 184.085C351.82 184.085 351.541 184.024 351.269 183.902C350.999 183.78 350.774 183.594 350.595 183.344C350.419 183.094 350.331 182.778 350.331 182.398V175.886ZM355.394 180.062V184H354.388V175.273H355.394V178.477H355.479C355.632 178.139 355.862 177.871 356.169 177.672C356.479 177.47 356.891 177.369 357.405 177.369C357.851 177.369 358.242 177.459 358.577 177.638C358.912 177.814 359.172 178.085 359.357 178.452C359.544 178.815 359.638 179.278 359.638 179.841V184H358.632V179.909C358.632 179.389 358.497 178.987 358.227 178.703C357.96 178.416 357.59 178.273 357.115 178.273C356.786 178.273 356.49 178.342 356.229 178.482C355.97 178.621 355.766 178.824 355.615 179.091C355.467 179.358 355.394 179.682 355.394 180.062ZM364.222 184.136C363.591 184.136 363.047 183.997 362.59 183.719C362.135 183.438 361.785 183.045 361.537 182.543C361.293 182.037 361.171 181.449 361.171 180.778C361.171 180.108 361.293 179.517 361.537 179.006C361.785 178.491 362.128 178.091 362.569 177.804C363.012 177.514 363.529 177.369 364.12 177.369C364.461 177.369 364.797 177.426 365.13 177.54C365.462 177.653 365.765 177.838 366.037 178.094C366.31 178.347 366.528 178.682 366.689 179.099C366.851 179.517 366.932 180.031 366.932 180.642V181.068H361.887V180.199H365.91C365.91 179.83 365.836 179.5 365.688 179.21C365.543 178.92 365.336 178.692 365.066 178.524C364.799 178.357 364.483 178.273 364.12 178.273C363.719 178.273 363.373 178.372 363.08 178.571C362.79 178.767 362.567 179.023 362.411 179.338C362.255 179.653 362.177 179.991 362.177 180.352V180.932C362.177 181.426 362.262 181.845 362.432 182.189C362.606 182.53 362.846 182.79 363.153 182.969C363.459 183.145 363.816 183.233 364.222 183.233C364.486 183.233 364.725 183.196 364.938 183.122C365.154 183.045 365.34 182.932 365.496 182.781C365.653 182.628 365.773 182.437 365.858 182.21L366.83 182.483C366.728 182.812 366.556 183.102 366.314 183.352C366.073 183.599 365.775 183.793 365.42 183.932C365.064 184.068 364.665 184.136 364.222 184.136ZM368.462 184V177.455H369.434V178.443H369.502C369.621 178.119 369.837 177.857 370.15 177.655C370.462 177.453 370.814 177.352 371.206 177.352C371.28 177.352 371.373 177.354 371.483 177.357C371.594 177.359 371.678 177.364 371.735 177.369V178.392C371.701 178.384 371.623 178.371 371.501 178.354C371.381 178.334 371.255 178.324 371.121 178.324C370.803 178.324 370.519 178.391 370.269 178.524C370.022 178.655 369.826 178.837 369.681 179.07C369.539 179.3 369.468 179.562 369.468 179.858V184H368.462Z" fill="black" fill-opacity="0.4"/>
</svg>
