<svg width="20" height="20" viewBox="0 0 20 20" fill="none" xmlns="http://www.w3.org/2000/svg">
<g id="Star">
<path id="Vector" d="M10.3438 14.8984L14.2812 17.3984C14.789 17.7187 15.414 17.2422 15.2657 16.6562L14.125 12.1719C14.0942 12.0475 14.099 11.9171 14.1392 11.7954C14.1792 11.6738 14.2529 11.566 14.3516 11.4844L17.8828 8.53905C18.3437 8.15625 18.1094 7.38282 17.5078 7.34376L12.8984 7.04686C12.7727 7.03954 12.6517 6.99574 12.5505 6.92082C12.4492 6.8459 12.3719 6.7431 12.3281 6.62499L10.6094 2.29688C10.5639 2.17179 10.481 2.06376 10.372 1.98739C10.263 1.91106 10.1331 1.87009 10 1.87009C9.86687 1.87009 9.73701 1.91106 9.62799 1.98739C9.51897 2.06376 9.43611 2.17179 9.39064 2.29688L7.67189 6.62499C7.6281 6.7431 7.55081 6.8459 7.44949 6.92082C7.34825 6.99574 7.22733 7.03954 7.10159 7.04686L2.49222 7.34376C1.89064 7.38282 1.65627 8.15625 2.11716 8.53905L5.64842 11.4844C5.74715 11.566 5.82077 11.6738 5.86082 11.7954C5.90096 11.9171 5.90584 12.0475 5.87502 12.1719L4.82033 16.3281C4.64066 17.0313 5.39062 17.6016 5.9922 17.2188L9.65622 14.8984C9.75899 14.8331 9.87823 14.7984 10 14.7984C10.1218 14.7984 10.241 14.8331 10.3438 14.8984Z" fill="black" fill-opacity="0.1"/>
<path id="Vector_2" fill-rule="evenodd" clip-rule="evenodd" d="M10.0084 15.4258C10.0084 15.4258 10.0046 15.4234 10.0001 15.4234C10.0001 15.4234 9.99551 15.4234 9.99167 15.4258L6.32662 17.7468C6.32662 17.7468 5.93675 17.9949 5.48655 17.9634C5.48655 17.9634 5.07226 17.9345 4.73511 17.6782C4.73511 17.6782 4.40217 17.4251 4.25729 17.0356C4.25729 17.0356 4.1015 16.6168 4.21483 16.1734L5.26925 12.0181C5.26925 12.0181 5.27225 12.006 5.26731 11.9911C5.26731 11.9911 5.26237 11.9761 5.25022 11.966L1.71692 9.01902C1.71692 9.01902 1.39728 8.75355 1.29241 8.35551C1.29241 8.35551 1.19657 7.99174 1.30925 7.62769C1.30925 7.62769 1.42319 7.25958 1.71159 7.01581C1.71159 7.01581 2.02905 6.7475 2.45174 6.72005L7.06144 6.42316C7.06144 6.42316 7.07228 6.42251 7.07789 6.41836C7.07789 6.41836 7.0835 6.41421 7.08593 6.40767L7.09105 6.39432L8.80694 2.0734C8.80694 2.0734 8.94489 1.70282 9.26954 1.47546C9.26954 1.47546 9.59847 1.24509 10.0001 1.24509C10.0001 1.24509 10.4016 1.24509 10.7306 1.47546C10.7306 1.47546 11.0552 1.70282 11.1932 2.0734L12.9091 6.39432L12.9142 6.40767C12.9142 6.40767 12.9166 6.41421 12.9222 6.41836C12.9222 6.41836 12.9278 6.42251 12.9348 6.42292L17.548 6.72003C17.548 6.72003 17.9711 6.7475 18.2885 7.01581C18.2885 7.01581 18.5769 7.25957 18.6909 7.62769C18.6909 7.62769 18.8035 7.99174 18.7077 8.35551C18.7077 8.35551 18.6028 8.75355 18.2822 9.01986L14.7519 11.9643C14.7519 11.9643 14.7377 11.9761 14.7328 11.9911C14.7328 11.9911 14.7279 12.006 14.7317 12.0214L15.8714 16.5022C15.8714 16.5022 15.9732 16.904 15.8313 17.2834C15.8313 17.2834 15.6992 17.6365 15.3969 17.8654C15.3969 17.8654 15.0904 18.0975 14.7131 18.1235C14.7131 18.1235 14.304 18.1517 13.9479 17.927L10.0093 15.4264L10.0088 15.4261L10.0084 15.4258ZM14.6147 16.8698L10.6793 14.3711L10.6788 14.3708C10.6788 14.3708 10.3682 14.1734 10.0001 14.1734C10.0001 14.1734 9.63174 14.1734 9.32094 14.371L5.65786 16.6907C5.65786 16.6907 5.5728 16.7448 5.49156 16.6831C5.49156 16.6831 5.39374 16.6087 5.42591 16.4829L6.48085 12.3256C6.48085 12.3256 6.57227 11.9572 6.45451 11.5998C6.45451 11.5998 6.33674 11.2425 6.04676 11.0027L2.51756 8.05909C2.51756 8.05909 2.49105 8.03706 2.50336 7.99729C2.50336 7.99729 2.51219 7.96876 2.53274 7.96742L7.14179 7.67057C7.14179 7.67057 7.51644 7.64878 7.82127 7.4233C7.82127 7.4233 8.12278 7.20026 8.25504 6.85003L9.97155 2.52754L9.97803 2.51051C9.97803 2.51051 9.98055 2.50357 9.98661 2.49933C9.98661 2.49933 9.99266 2.49509 10.0001 2.49509C10.0001 2.49509 10.0074 2.49509 10.0135 2.49933C10.0135 2.49933 10.0196 2.50357 10.0221 2.51051L10.0286 2.52754L11.7451 6.85002C11.7451 6.85002 11.8773 7.20026 12.1788 7.4233C12.1788 7.4233 12.4837 7.64878 12.8622 7.67081L17.4677 7.96745C17.4677 7.96745 17.4879 7.96876 17.4967 7.99729C17.4967 7.99729 17.5091 8.03706 17.4836 8.05825L13.9513 11.0044C13.9513 11.0044 13.6634 11.2425 13.5456 11.5998C13.5456 11.5998 13.4278 11.9572 13.5184 12.3224L14.66 16.8103C14.66 16.8103 14.6696 16.8482 14.6423 16.8689C14.6423 16.8689 14.6291 16.8789 14.6147 16.8698Z" fill="#1C1C1C"/>
</g>
</svg>
